# xmcd CD database file
#
# Track frame offsets:
#	150
#	24729
#	50930
#	76391
#	93590
#	117640
#	143566
#	182599
#	200575
#	223693
#	235051
#	263644
#	278400
#
# Disc length: 4161 seconds
#
# Revision: 0
# Processed by: cddbd v1.5.2PL0 Copyright (c) Steve Scherf et al.
# Submitted via: CDex 1.70beta2
#
DISCID=bc103f0d
DTITLE=Leimgruber,Urs - Solo, 13#  Pieces For Saxophone
DYEAR=2007
DGENRE=Jazz
TTITLE0=One
TTITLE1=Two
TTITLE2=Three
TTITLE3=Four
TTITLE4=Five
TTITLE5=Six
TTITLE6=Seven
TTITLE7=Eight
TTITLE8=Nine
TTITLE9=Ten
TTITLE10=Eleven
TTITLE11=Twelve
TTITLE12=Thirteen
EXTD=YEAR: 2007
EXTT0=
EXTT1=
EXTT2=
EXTT3=
EXTT4=
EXTT5=
EXTT6=
EXTT7=
EXTT8=
EXTT9=
EXTT10=
EXTT11=
EXTT12=
PLAYORDER=
